<svg xmlns="http://www.w3.org/2000/svg" width="198" height="264" viewBox="0 0 198 264">
  <g id="lock" transform="translate(-64)">
    <g id="Group_2" data-name="Group 2" transform="translate(64)">
      <g id="Group_1" data-name="Group 1">
        <path id="Path_1" data-name="Path 1" d="M222.335,317.026l-3.47,31.2a5.5,5.5,0,0,0,5.468,6.107h22a5.5,5.5,0,0,0,5.468-6.107l-3.47-31.2a21.76,21.76,0,0,0,9-17.693,22,22,0,1,0-44,0A21.76,21.76,0,0,0,222.335,317.026Zm13-28.692a10.962,10.962,0,0,1,4.748,20.861,5.5,5.5,0,0,0-3.072,5.559l3.18,28.58h-9.711l3.18-28.58a5.5,5.5,0,0,0-3.072-5.559,10.962,10.962,0,0,1,4.747-20.861Z" transform="translate(-136.333 -134.333)" fill="#8b8b8b"/>
        <path id="Path_2" data-name="Path 2" d="M256.5,99H240V77A77,77,0,0,0,86,77V99H69.5a5.5,5.5,0,0,0-5.5,5.5V242a22.021,22.021,0,0,0,22,22H240a22.021,22.021,0,0,0,22-22V104.5A5.5,5.5,0,0,0,256.5,99ZM97,77a66,66,0,0,1,132,0V99H218V77a55,55,0,0,0-110,0V99H97Zm110,0V99H119V77a44,44,0,0,1,88,0Zm44,165a11.014,11.014,0,0,1-11,11H86a11.014,11.014,0,0,1-11-11V110H251Z" transform="translate(-64)" fill="#8b8b8b"/>
      </g>
    </g>
  </g>
</svg>
