<svg height="512" viewBox="0 0 60 60" width="512" xmlns="http://www.w3.org/2000/svg"><g id="011---Rescue-Dog" transform="translate(0 -1)"><path id="Shape" d="m2 61h5c1.1045695 0 2-.8954305 2-2-.00268346-1.7329729-1.12099031-3.2671123-2.77-3.8l.56-2.2c1.43914126-.1587953 2.85317116-.4946694 4.21-1v7c0 1.1045695.8954305 2 2 2h5c1.1045695 0 2-.8954305 2-2-.0156034-1.7218977-1.1314414-3.2405654-2.77-3.77l.52-2.23c3.9575082.0946023 7.3755555-2.7509221 8-6.66 2.1158293.5540405 4.3123139.7334145 6.49.53l2.28 12.45c.1759347.9621851 1.0219925 1.6559525 2 1.64h9.48c1.1045695 0 2-.8954305 2-2 .0032034-1.8266049-1.2313939-3.4233509-3-3.88v-11.43c2.44-2.38 4-7.65 4-13.65.0069915-2.0133672-.1805463-4.022701-.56-6h4.56c3.5078429-.18132 6.4184805-2.7759455 7-6.24.1476875-.9791983-.4434356-1.9190415-1.39-2.21l-5.7-1.67c-.4804319-2.5244767-2.5151737-4.46270905-5.06-4.82-.42-1.89-1.72-6.43-4.66-7.9-.4431497-.23229641-.9729481-.22834118-1.4125802.01054566-.4396321.23888685-.731209.68124971-.7774198 1.17945434l-.91 8.65c-.11 1.12-.4 1.11-4.08 10.44-1.0392928 2.72121-3.6372342 4.5298532-6.55 4.56h-17.27c-1.2159545.0037143-2.31388761-.7269246-2.78-1.85-1.16026597-2.8519318-2.00203455-5.8232743-2.51-8.86-.08084597-.6236781-.54457244-1.1294421-1.15891191-1.263969-.61433947-.1345268-1.24699531.1311534-1.58108809.663969-2.58 4.06-3.37 13 .47 18.1-1.88193217 3.3351589-2.15039251 7.3436762-.73 10.9l-3 3c-.57503437.5636459-.89934792 1.3347914-.9 2.14v10.17c0 1.1045695.8954305 2 2 2zm34.48-2-2.26-12.38c.7304595-.1554323 1.4489389-.3626217 2.15-.62 2.89 15.44.33 1.8 2.43 13zm-3.48-31.76v11.76c0 .5522847-.4477153 1-1 1h-16c-.5522847 0-1-.4477153-1-1v-11h14.46c1.2197345-.006957 2.4248946-.2656919 3.54-.76zm-31 21.59c-.00153676-.265803.10281349-.5212812.29-.71l3-3c.54609769-.5614988.71416289-1.3900993.43-2.12-1.14570795-2.967523-.92622468-6.2890364.6-9.08.42713905-.6683527.39932573-1.5305655-.07-2.17-1.55760687-2.2771338-2.34602053-4.9927808-2.25-7.75-.08535536-2.3892053.31611507-4.7708095 1.18-7 .54573382 2.6995694 1.3459752 5.3413704 2.39 7.89.76667335 1.877762 2.5917582 3.1063365 4.62 3.11h.81v11c0 1.6568542 1.3431458 3 3 3h16c1.6568542 0 3-1.3431458 3-3v-12.94c1.2950342-1.0008578 2.2882631-2.3401595 2.87-3.87l3.72-9c.51-1.25.42-1.27 1.32-9.83 1.83 1.55 2.85 5.33 3.1 6.8.0786569.4852851.4983838.841417.99.84 2.1078538-.0048071 3.857725 1.6269478 4 3.73.0296581.4182833.3171351.7736368.72.89l6.28 1.86c-.4433368 2.4692371-2.4986928 4.3272789-5 4.52h-8c-.5522847 0-1 .4477153-1 1s.4477153 1 1 1h1.39c1.28 6 .42 12.58-1.39 16.2v-.2c0-.5522847-.4477153-1-1-1s-1 .4477153-1 1v16c0 .5522847.4477153 1 1 1 1.1045695 0 2 .8954305 2 2h-5.17c-2.59-13.81.28 1.46-2.5-13.33-.1070499-.5741215-.4596973-1.07277-.9653397-1.3650044-.5056423-.2922344-1.1137579-.3488557-1.6646603-.1549956-3.0446041 1.0084594-6.3156809 1.1161063-9.42.31-.5313909-.1371198-1.0957806-.0498571-1.5609469.2413445-.4651663.2912017-.7902359.760755-.8990531 1.2986555-1 4.42-4.22 5.09-6.07 5.09-.9087342.0086648-1.6973913.6289107-1.92 1.51l-.54 2.16c-.2518046 1.0136947.3188483 2.0504535 1.31 2.38.816604.2565385 1.3794315 1.004295 1.4 1.86h-5v-14c0-.5522847-.4477153-1-1-1s-1 .4477153-1 1v4.86c-1.39823025.5969869-2.87796868.981247-4.39 1.14-.84838144.0771395-1.55478887.683205-1.76 1.51l-.56 2.24c-.22841373 1.0005827.33761607 2.0116588 1.31 2.34.83395164.2622651 1.40092722 1.0357818 1.4 1.91h-5.00001674z"/><path id="Shape" d="m21 35h2v2c0 .5522847.4477153 1 1 1s1-.4477153 1-1v-2h2c.5522847 0 1-.4477153 1-1s-.4477153-1-1-1h-2v-2c0-.5522847-.4477153-1-1-1s-1 .4477153-1 1v2h-2c-.5522847 0-1 .4477153-1 1s.4477153 1 1 1z"/></g></svg>