<?xml version="1.0" encoding="UTF-8"?>
<svg width="57px" height="57px" viewBox="0 0 57 57" version="1.1" xmlns="http://www.w3.org/2000/svg" xmlns:xlink="http://www.w3.org/1999/xlink">
    <!-- Generator: Sketch 51.2 (57519) - http://www.bohemiancoding.com/sketch -->
    <title>Group 2 Copy</title>
    <desc>Created with Sketch.</desc>
    <defs>
        <circle id="path-1" cx="28.5" cy="28.5" r="28.5"></circle>
    </defs>
    <g id="Page-1" stroke="none" stroke-width="1" fill="none" fill-rule="evenodd">
        <g id="Artboard-3" transform="translate(-38.000000, -32.000000)">
            <g id="Group-2-Copy" transform="translate(38.000000, 32.000000)">
                <mask id="mask-2" fill="white">
                    <use xlink:href="#path-1"></use>
                </mask>
                <use id="Mask" fill="#FFFFFF" xlink:href="#path-1"></use>
                <g mask="url(#mask-2)" id="Group">
                    <g transform="translate(-1.000000, 9.000000)">
                        <g>
                            <path d="M34.0935,38 C34.7356429,38 35.2363571,38.5 35.2363571,39.1428571 C35.2363571,39.7857143 34.7356429,40.2857143 34.0935,40.2857143 C33.4506429,40.2857143 32.9499286,39.7857143 32.9499286,39.1428571 C32.9499286,38.5 33.4506429,38 34.0935,38 Z M58.5213571,54.5 L23.3070714,54.5 L23.3070714,43.8571429 C23.3070714,37.1428571 27.8070714,31.2857143 33.3792143,30.2142857 L33.3792143,36.7142857 C32.3077857,37 31.5213571,38 31.5213571,39.1428571 C31.5213571,40.5714286 32.6649286,41.7142857 34.0935,41.7142857 C35.5220714,41.7142857 36.6649286,40.5714286 36.6649286,39.1428571 C36.6649286,38 35.8792143,37 34.8077857,36.7142857 L34.8077857,30.0714286 L35.8070714,30.0714286 L36.0935,30.2857143 C37.5927857,31.2142857 39.2356429,31.6428571 40.8792143,31.6428571 C42.5220714,31.6428571 44.1649286,31.2142857 45.5935,30.3571429 L45.9506429,30.1428571 L47.1649286,30.1428571 L47.1649286,36.7142857 C44.0213571,37.0714286 41.5213571,39.7857143 41.5213571,43 L41.5213571,46.6428571 C41.5213571,47.0714286 41.8077857,47.3571429 42.2356429,47.3571429 C42.6649286,47.3571429 42.9499286,47.0714286 42.9499286,46.6428571 L42.9499286,43 C42.9499286,40.2857143 45.1649286,38.0714286 47.8792143,38.0714286 C50.5935,38.0714286 52.8070714,40.2857143 52.8070714,43 L52.8070714,46.6428571 C52.8070714,47.0714286 53.0935,47.3571429 53.5213571,47.3571429 C53.9506429,47.3571429 54.2356429,47.0714286 54.2356429,46.6428571 L54.2356429,43 C54.2356429,39.7142857 51.7356429,37.0714286 48.5935,36.7142857 L48.5935,30.3571429 C54.0935,31.3571429 58.5213571,37.2142857 58.5213571,43.8571429 L58.5213571,54.5 Z M45.1649286,25.3571429 L45.1649286,28.9285714 L44.9499286,29 C42.4499286,30.5 39.3785,30.5 36.8785,29 L36.7356429,28.9285714 L36.7356429,25.2857143 C37.0220714,25.4285714 37.3077857,25.5 37.6649286,25.6428571 L37.7363571,25.6428571 C38.9506429,25.9285714 40.0220714,26.0714286 41.0213571,26.0714286 C42.9499286,26.0714286 44.2356429,25.6428571 44.3785,25.6428571 C44.6649286,25.5714286 44.9499286,25.4285714 45.1649286,25.3571429 Z M31.8077857,16.1428571 C35.3792143,15.8571429 38.3070714,13.0714286 39.3077857,12 C43.5935,14.5714286 48.7363571,15.6428571 50.1649286,15.9285714 C50.0220714,19.7142857 47.5220714,23.0714286 43.8785,24.2857143 C43.8785,24.2857143 41.1642143,25.0714286 38.0935,24.2857143 C34.5220714,23.0714286 32.0927857,19.8571429 31.8077857,16.1428571 Z M33.8077857,9.85714286 L36.3077857,9.85714286 C36.8785,10.3571429 37.4499286,10.8571429 38.0935,11.2857143 C37.0927857,12.3571429 34.5927857,14.5 31.8077857,14.7857143 C31.9506429,12.9285714 32.6649286,11.2142857 33.8077857,9.85714286 Z M34.0213571,8.42857143 L47.9499286,8.42857143 L47.9499286,1.42857143 L34.0213571,1.42857143 L34.0213571,8.42857143 Z M50.0927857,14.5 C48.1642143,14.0714286 42.5220714,12.7857143 38.5213571,9.85714286 L48.1642143,9.85714286 C49.2356429,11.1428571 49.9499286,12.7857143 50.0927857,14.5 Z M46.7356429,28.5714286 L46.5935,28.5714286 L46.5935,27.9657143 C46.5849286,27.9207143 46.5663571,27.8828571 46.5663571,27.8328571 L46.5663571,26.4978571 C46.5506429,26.4985714 46.5370714,26.5 46.5213571,26.5 L46.5213571,24.6428571 C48.0220714,23.7142857 49.2356429,22.5 50.0927857,21 L50.0935,21.0007143 C50.0977857,20.9942857 50.0977857,20.9878571 50.1027857,20.9814286 C50.4206429,20.5678571 50.6463571,20.1242857 50.8742143,19.6571429 C50.9606429,19.44 51.0477857,19.2221429 51.1135,19.0021429 C51.4606429,17.8821429 51.7356429,16.7614286 51.7356429,15.5714286 C51.7356429,13.2142857 50.9506429,10.9285714 49.5220714,9.07142857 L49.5220714,0.714285714 C49.5220714,0.285714286 49.2356429,0 48.8077857,0 L33.3070714,0 C32.8792143,0 32.5927857,0.285714286 32.5927857,0.714285714 L32.5927857,9.07142857 C31.1642143,10.9285714 30.3792143,13.2142857 30.3792143,15.5714286 C30.3792143,16.7142857 30.5935,17.8571429 30.9506429,18.9285714 C30.9377857,18.9821429 31.2763571,20.1085714 31.7356429,20.8571429 C32.5927857,22.3571429 33.8077857,23.6428571 35.3070714,24.5714286 L35.3070714,25.225 C35.3135,25.2642857 35.3306429,25.2957143 35.3306429,25.3385714 L35.3306429,27.7257143 C35.3306429,27.7814286 35.3106429,27.8221429 35.3006429,27.8707143 L35.3006429,27.8735714 C35.3006429,27.8935714 35.2920714,27.9071429 35.2906429,27.9257143 C35.3213571,27.9257143 35.3485,27.9285714 35.3792143,27.9285714 L35.3792143,28.5714286 L35.1649286,28.5714286 C28.0220714,28.5714286 21.9506429,35.5714286 21.9506429,43.8571429 L21.9506429,55.2142857 C21.8785,55.5714286 22.1649286,55.9285714 22.5927857,55.9285714 L59.2356429,55.9285714 C59.6649286,55.9285714 59.9499286,55.6428571 59.9499286,55.2142857 L59.9499286,43.8571429 C59.9499286,35.5714286 53.8785,28.5714286 46.7356429,28.5714286 Z" id="Fill-1" fill="#001B4F"></path>
                            <path d="M13.4395714,28.5712857 C13.4395714,28.5712857 18.0738571,33.9384286 24.6538571,28.5712857 C24.6538571,28.5712857 34.7602857,30.397 36.9917143,40.2855714 L36.9917143,55.2141429 L0.653857143,55.2141429 L0.653857143,41.8927143 C0.653857143,41.8927143 2.29671429,30.6427143 13.4395714,28.5712857" id="Fill-3" stroke="#979797" fill="#FFFFFF"></path>
                            <path d="M1.36821429,43.8572857 C1.36821429,37.143 5.86821429,31.2858571 11.4396429,30.2144286 L11.4396429,36.7144286 C10.3682143,37.0001429 9.5825,38.0001429 9.5825,39.1422857 C9.5825,40.5708571 10.7253571,41.7144286 12.1539286,41.7144286 C13.5825,41.7144286 14.7253571,40.5708571 14.7253571,39.1422857 C14.7253571,38.0001429 13.9396429,37.0001429 12.8682143,36.7144286 L12.8682143,30.0715714 L13.1539286,30.0715714 L13.8682143,30.0715714 L14.1539286,30.2858571 C15.6539286,31.2144286 17.2967857,31.643 18.9396429,31.643 C20.5817857,31.643 22.2253571,31.2144286 23.6539286,30.3572857 L24.0110714,30.143 L24.7253571,30.143 L25.2246429,30.143 L25.2246429,36.7144286 C22.0825,37.0715714 19.5825,39.7858571 19.5825,43.0001429 L19.5825,46.6422857 C19.5825,47.0715714 19.8675,47.3565714 20.2967857,47.3565714 C20.7253571,47.3565714 21.0110714,47.0715714 21.0110714,46.6422857 L21.0110714,43.0001429 C21.0110714,40.2858571 23.2253571,38.0708571 25.9389286,38.0708571 C28.6539286,38.0708571 30.8682143,40.2858571 30.8682143,43.0001429 L30.8682143,46.6422857 C30.8682143,47.0715714 31.1539286,47.3565714 31.5825,47.3565714 C32.0103571,47.3565714 32.2967857,47.0715714 32.2967857,46.6422857 L32.2967857,43.0001429 C32.2967857,39.7144286 29.7967857,37.0715714 26.6532143,36.7144286 L26.6532143,30.3572857 C32.1539286,31.3572857 36.5825,37.2144286 36.5825,43.8572857 L36.5825,54.4994286 L1.36821429,54.4994286 L1.36821429,43.8572857 Z M12.1539286,38.0001429 C12.7967857,38.0001429 13.2967857,38.5001429 13.2967857,39.1422857 C13.2967857,39.7858571 12.7967857,40.2858571 12.1539286,40.2858571 C11.5110714,40.2858571 11.0110714,39.7858571 11.0110714,39.1422857 C11.0110714,38.5001429 11.5110714,38.0001429 12.1539286,38.0001429 Z M7.0825,24.8572857 C8.43964286,23.7858571 9.29678571,22.0715714 9.79678571,20.8572857 C10.6539286,22.3572857 11.8682143,23.643 13.3682143,24.5715714 L13.3682143,26.5001429 C10.2253571,26.5001429 8.15392857,25.5001429 7.0825,24.8572857 Z M12.0825,8.42871429 L26.0110714,8.42871429 L26.0110714,1.42871429 L12.0825,1.42871429 L12.0825,8.42871429 Z M28.1539286,14.5001429 C26.2253571,14.0715714 20.5817857,12.7858571 16.5825,9.85728571 L26.2253571,9.85728571 C27.2967857,11.143 28.0110714,12.7858571 28.1539286,14.5001429 Z M30.8682143,24.8572857 C29.7967857,25.5001429 27.7246429,26.5001429 24.5825,26.5001429 L24.5825,24.643 C26.0825,23.7144286 27.2967857,22.5001429 28.1539286,21.0001429 C28.7253571,22.2144286 29.5825,23.8572857 30.8682143,24.8572857 Z M14.7967857,25.2858571 C15.0825,25.4287143 15.3682143,25.5001429 15.7253571,25.643 L15.7967857,25.643 C17.0110714,25.9287143 18.0825,26.0715714 19.0825,26.0715714 C21.0110714,26.0715714 22.2967857,25.643 22.4396429,25.643 C22.7246429,25.5715714 23.0110714,25.4287143 23.2253571,25.3572857 L23.2253571,28.9287143 L23.0110714,29.0001429 C20.5110714,30.5001429 17.4396429,30.5001429 14.9396429,29.0001429 L14.7967857,28.9287143 L14.7967857,25.2858571 Z M9.86821429,16.143 C13.4396429,15.8572857 16.3682143,13.0715714 17.3682143,12.0001429 C21.6532143,14.5715714 26.7967857,15.643 28.2253571,15.9287143 C28.0817857,19.7144286 25.5817857,23.0715714 21.9396429,24.2858571 C21.9396429,24.2858571 19.2253571,25.0715714 16.1539286,24.2858571 C12.5825,23.0715714 10.1539286,19.8572857 9.86821429,16.143 Z M11.8682143,9.85728571 L14.3682143,9.85728571 C14.9396429,10.3572857 15.5110714,10.8572857 16.1539286,11.2858571 C15.1539286,12.3572857 12.6539286,14.5001429 9.86821429,14.7858571 C10.0110714,12.9287143 10.7253571,11.2144286 11.8682143,9.85728571 Z M0.653928571,55.928 L37.2967857,55.928 C37.7246429,55.928 38.0110714,55.643 38.0110714,55.2137143 L38.0110714,43.8572857 C38.0110714,35.5715714 31.9396429,28.5715714 24.7967857,28.5715714 L24.6539286,28.5715714 L24.6539286,27.9287143 C30.0110714,27.9287143 32.5825,25.4287143 32.7246429,25.2858571 C32.8682143,25.143 32.9396429,24.8572857 32.9396429,24.643 C32.8682143,24.4287143 32.7246429,24.2144286 32.5110714,24.143 C30.4396429,23.2858571 29.3682143,19.9287143 29.1532143,19.0715714 C29.5103571,17.9287143 29.7967857,16.7858571 29.7967857,15.5715714 C29.7967857,13.2144286 29.0110714,10.9287143 27.5825,9.07157143 L27.5825,0.714428571 C27.5825,0.285857143 27.2967857,0.000142857143 26.8682143,0.000142857143 L11.3682143,0.000142857143 C10.9396429,0.000142857143 10.6539286,0.285857143 10.6539286,0.714428571 L10.6539286,9.07157143 C9.22535714,10.9287143 8.43964286,13.2144286 8.43964286,15.5715714 C8.43964286,16.7144286 8.65392857,17.8572857 9.01107143,18.9287143 C8.72535714,20.143 7.5825,23.3572857 5.5825,24.143 C5.36821429,24.2144286 5.22535714,24.4287143 5.15392857,24.643 C5.0825,24.8572857 5.15392857,25.143 5.36821429,25.2858571 C5.51107143,25.4287143 8.0825,27.9287143 13.4396429,27.9287143 L13.4396429,28.5715714 L13.2253571,28.5715714 C6.0825,28.5715714 0.0110714286,35.5715714 0.0110714286,43.8572857 L0.0110714286,55.2137143 C-0.0603571429,55.5708571 0.225357143,55.928 0.653928571,55.928 Z" id="Fill-5" fill="#001B4F"></path>
                            <path d="M16.7142857,5 L17.5714286,5 L17.5714286,5.85714286 C17.5714286,6.28571429 17.8571429,6.57142857 18.2857143,6.57142857 C18.7142857,6.57142857 19,6.28571429 19,5.85714286 L19,5 L19.8571429,5 C20.2857143,5 20.5714286,4.71428571 20.5714286,4.28571429 C20.5714286,3.85714286 20.2857143,3.57142857 19.8571429,3.57142857 L19,3.57142857 L19,2.71428571 C19,2.28571429 18.7142857,2 18.2857143,2 C17.8571429,2 17.5714286,2.28571429 17.5714286,2.71428571 L17.5714286,3.57142857 L16.7142857,3.57142857 C16.2857143,3.57142857 16,3.85714286 16,4.28571429 C16,4.71428571 16.2857143,5 16.7142857,5" id="Fill-7" fill="#001B4F"></path>
                            <path d="M38.7142857,5 L39.5714286,5 L39.5714286,5.85714286 C39.5714286,6.28571429 39.8571429,6.57142857 40.2857143,6.57142857 C40.7142857,6.57142857 41,6.28571429 41,5.85714286 L41,5 L41.8571429,5 C42.2857143,5 42.5714286,4.71428571 42.5714286,4.28571429 C42.5714286,3.85714286 42.2857143,3.57142857 41.8571429,3.57142857 L41,3.57142857 L41,2.71428571 C41,2.28571429 40.7142857,2 40.2857143,2 C39.8571429,2 39.5714286,2.28571429 39.5714286,2.71428571 L39.5714286,3.57142857 L38.7142857,3.57142857 C38.2857143,3.57142857 38,3.85714286 38,4.28571429 C38,4.71428571 38.2857143,5 38.7142857,5" id="Fill-7-Copy" fill="#001B4F"></path>
                            <path d="M46,31 C47,29 52,31 53,33 C53.6666667,34.3333333 52,39 48,47 L41,47 L40,38 C42.952381,34.6666667 44.952381,32.3333333 46,31 Z" id="Path-2" fill="#FFFFFF" fill-rule="nonzero"></path>
                        </g>
                    </g>
                </g>
            </g>
        </g>
    </g>
</svg>