<?xml version="1.0" encoding="UTF-8"?>
<svg width="57px" height="57px" viewBox="0 0 57 57" version="1.1" xmlns="http://www.w3.org/2000/svg" xmlns:xlink="http://www.w3.org/1999/xlink">
    <!-- Generator: Sketch 51.2 (57519) - http://www.bohemiancoding.com/sketch -->
    <title>Group 4 Copy</title>
    <desc>Created with Sketch.</desc>
    <defs>
        <circle id="path-1" cx="28.5" cy="28.5" r="28.5"></circle>
        <polygon id="path-3" points="0 0.4948125 37.6162118 0.4948125 37.6162118 55.8429836 0 55.8429836"></polygon>
    </defs>
    <g id="Page-1" stroke="none" stroke-width="1" fill="none" fill-rule="evenodd">
        <g id="Artboard-3" transform="translate(-98.000000, -32.000000)">
            <g id="Group-4-Copy" transform="translate(98.000000, 32.000000)">
                <mask id="mask-2" fill="white">
                    <use xlink:href="#path-1"></use>
                </mask>
                <use id="Mask" fill="#FFFFFF" xlink:href="#path-1"></use>
                <g mask="url(#mask-2)">
                    <g transform="translate(10.000000, 7.000000)">
                        <g id="Group-3" stroke-width="1" fill="none">
                            <mask id="mask-4" fill="white">
                                <use xlink:href="#path-3"></use>
                            </mask>
                            <g id="Clip-2"></g>
                            <path d="M12.7342118,30.2583499 L12.7342118,30.2541086 L13.7238368,30.2541086 L14.0072936,30.4661711 C15.4910243,31.3851086 17.1168368,31.8092336 18.7426493,31.8092336 C20.3691686,31.8092336 21.9949811,31.3851086 23.4087311,30.5368586 L23.7621686,30.3247961 L12.7342118,30.2583499 Z M25.3420343,30.3240893 L26.6589424,30.6047186 C31.9696943,31.7406668 36.2024618,37.4380793 36.2024618,43.8967961 L36.2024618,54.4292336 L1.35352425,54.4292336 L1.35352425,43.8967961 C1.35352425,37.2521711 5.80683675,31.4557961 11.3204618,30.3954836 L25.3420343,30.3240893 Z M22.9838992,25.5887336 L22.9838992,29.1231086 L22.7718368,29.1937961 C20.2977743,30.6782336 17.2582118,30.6782336 14.7841493,29.1937961 L14.6427743,29.1231086 L14.6427743,25.5180461 C14.9262311,25.6594211 15.2082743,25.7301086 15.5617118,25.8714836 L15.6331061,25.8714836 C16.8347936,26.1542336 17.8951061,26.2956086 18.8840243,26.2956086 C20.7925867,26.2956086 22.0649617,25.8714836 22.2063367,25.8714836 C22.4897936,25.8007961 22.7718368,25.6594211 22.9838992,25.5887336 Z M9.76604362,16.4700461 C13.3004186,16.1872961 16.1978993,13.4304836 17.1882311,12.3701711 C21.4294811,14.9149211 26.5182743,15.9752336 27.9320243,16.2579836 C27.7913561,20.0044211 25.3172936,23.3267336 21.7115243,24.5284211 C21.7115243,24.5284211 19.0253993,25.3059836 15.9865436,24.5284211 C12.4521686,23.3267336 10.0480867,20.1457961 9.76604362,16.4700461 Z M13.2290243,26.7197336 C10.1194811,26.7197336 8.06883675,25.7301086 7.00852425,25.0939211 C8.35229363,24.0336086 9.19983675,22.3371086 9.69464925,21.1354211 C10.5428993,22.6198586 11.7452936,23.8922336 13.2290243,24.8111711 L13.2290243,26.7197336 Z M11.7452936,10.2495461 L14.2193561,10.2495461 C14.7841493,10.7443586 15.3496493,11.2391711 15.9865436,11.6632961 C14.9962118,12.7236086 12.5221493,14.8442336 9.76604362,15.1269836 C9.90671175,13.2891086 10.6135867,11.5926086 11.7452936,10.2495461 Z M11.9566493,8.83579613 L25.7407117,8.83579613 L25.7407117,1.90842113 L11.9566493,1.90842113 L11.9566493,8.83579613 Z M27.8613367,14.8442336 C25.9527742,14.4201086 20.3691686,13.1477336 16.4099618,10.2495461 L25.9527742,10.2495461 C27.0130867,11.5219211 27.7199617,13.1477336 27.8613367,14.8442336 Z M30.5474618,25.0939211 C29.4871493,25.7301086 27.4379186,26.7197336 24.3269618,26.7197336 L24.3269618,24.8818586 C25.8113993,23.9629211 27.0130868,22.7612336 27.8613368,21.2767961 C28.4268368,22.4784836 29.2750868,24.1042961 30.5474618,25.0939211 Z M24.3976493,28.7696711 L24.3976493,28.1334836 C29.6992118,28.1334836 32.2446686,25.6594211 32.3860436,25.5180461 C32.5267118,25.3766711 32.5981061,25.0939211 32.5981061,24.8818586 C32.5267118,24.6697961 32.3860436,24.4577336 32.1732743,24.3870461 C30.1240436,23.5387961 29.0637311,20.2164836 28.8516686,19.3682336 C29.2051061,18.2372336 29.4871493,17.1062336 29.4871493,15.9045461 C29.4871493,13.5718586 28.7102936,11.3098586 27.2965436,9.47198363 L27.2965436,1.20154612 C27.2965436,0.777421125 27.0130868,0.494671125 26.5896686,0.494671125 L11.2497742,0.494671125 C10.8263561,0.494671125 10.5428993,0.777421125 10.5428993,1.20154612 L10.5428993,9.47198363 C9.12914925,11.3098586 8.35229362,13.5718586 8.35229362,15.9045461 C8.35229362,17.0355461 8.56435612,18.1665461 8.91779362,19.2268586 C8.63433675,20.4285461 7.50404363,23.6094836 5.52479363,24.3870461 C5.31202425,24.4577336 5.17135613,24.6697961 5.09996175,24.8818586 C5.02998112,25.0939211 5.09996175,25.3766711 5.31202425,25.5180461 C5.45339925,25.6594211 7.99885613,28.1334836 13.3004186,28.1334836 L13.3004186,28.7696711 L13.0876493,28.7696711 C6.01889925,28.7696711 0.01046175,35.6970461 0.01046175,43.8967961 L0.01046175,55.1361086 C-0.06022575,55.4895461 0.223231125,55.8429836 0.64664925,55.8429836 L36.9093368,55.8429836 C37.3341686,55.8429836 37.6162118,55.5602336 37.6162118,55.1361086 L37.6162118,43.8967961 C37.6162118,35.6970461 31.6077743,28.7696711 24.5390243,28.7696711 L24.3976493,28.7696711 Z" id="Fill-1" fill="#001B4F" mask="url(#mask-4)"></path>
                        </g>
                        <path d="M16.2094702,6.459375 L16.940225,6.459375 L16.940225,7.190625 C16.940225,7.55625 17.1846226,7.8 17.5496953,7.8 C17.9159869,7.8 18.1591655,7.55625 18.1591655,7.190625 L18.1591655,6.459375 L18.8905298,6.459375 C19.2568214,6.459375 19.5,6.215625 19.5,5.85 C19.5,5.484375 19.2568214,5.240625 18.8905298,5.240625 L18.1591655,5.240625 L18.1591655,4.509375 C18.1591655,4.14375 17.9159869,3.9 17.5496953,3.9 C17.1846226,3.9 16.940225,4.14375 16.940225,4.509375 L16.940225,5.240625 L16.2094702,5.240625 C15.8431786,5.240625 15.6,5.484375 15.6,5.85 C15.6,6.215625 15.8431786,6.459375 16.2094702,6.459375" id="Fill-4" fill="#001B4F"></path>
                    </g>
                </g>
            </g>
        </g>
    </g>
</svg>