<?xml version="1.0" encoding="UTF-8"?>
<svg width="57px" height="57px" viewBox="0 0 57 57" version="1.1" xmlns="http://www.w3.org/2000/svg" xmlns:xlink="http://www.w3.org/1999/xlink">
    <!-- Generator: Sketch 51.2 (57519) - http://www.bohemiancoding.com/sketch -->
    <title>Group 5</title>
    <desc>Created with Sketch.</desc>
    <defs></defs>
    <g id="Page-1" stroke="none" stroke-width="1" fill="none" fill-rule="evenodd">
        <g id="Artboard-3" transform="translate(-168.000000, -32.000000)">
            <g id="Group-5" transform="translate(168.000000, 32.000000)">
                <circle id="Oval-5-Copy-2" fill="#FFFFFF" cx="28.5" cy="28.5" r="28.5"></circle>
                <path d="M20.7933419,15.1572115 C18.803946,15.1572115 16.8145501,15.9146851 15.2996029,17.4292409 C13.8320222,18.8968216 13.0240503,20.847463 13.0240503,22.9229799 C13.0240503,24.9981054 13.8324136,26.9487468 15.2996029,28.415936 C15.3105637,28.4268969 15.3215246,28.4378578 15.332094,28.4492101 C20.700566,34.3089635 26.848042,40.6275071 28.5,41.7693937 C30.151958,40.62829 36.299434,34.308572 41.667906,28.449993 C43.1671949,26.9487468 43.9759497,24.9977139 43.9759497,22.9229799 C43.9759497,20.847463 43.1671949,18.8968216 41.7003971,17.4292409 C38.6705026,14.4001293 33.7432051,14.4001293 30.7129191,17.4292409 C30.2114598,17.9303088 29.782029,18.4955759 29.4351961,19.1101669 C29.2512103,19.4354695 28.9106407,19.6413771 28.5375801,19.6535123 C28.1707828,19.6632988 27.8114232,19.4812703 27.60669,19.1681029 C27.5961206,19.1524445 27.5409249,19.0651491 27.5303555,19.0490993 C27.1886115,18.4572129 26.7709245,17.9123016 26.2870809,17.4296324 C24.7721336,15.9146851 22.7827378,15.1572115 20.7933419,15.1572115 Z M28.5,44.0183271 C28.0059784,44.0183271 26.6957643,44.01911 13.7697801,29.9120933 C11.9087829,28.0424839 10.8843341,25.5610238 10.8843341,22.9229799 C10.8843341,20.2759325 11.9150463,17.7878176 13.7870044,15.916251 C17.6518815,12.0529397 23.9363681,12.0529397 27.8000709,15.916251 C28.0466902,16.1628703 28.2807828,16.4224078 28.5,16.6929061 C28.7192172,16.4224078 28.9533098,16.1624788 29.1999291,15.915468 C33.0636319,12.0521568 39.3492929,12.0529397 43.2129956,15.9158595 C45.0845623,17.7874261 46.1156659,20.2759325 46.1156659,22.9229799 C46.1156659,25.5696359 45.0845623,28.0577508 43.2129956,29.928926 C30.3065844,44.0183271 28.9940216,44.0183271 28.5,44.0183271 Z" id="Fill-1-Copy" fill="#001B4F"></path>
            </g>
        </g>
    </g>
</svg>