<?xml version="1.0" encoding="UTF-8"?>
<svg width="57px" height="57px" viewBox="0 0 57 57" version="1.1" xmlns="http://www.w3.org/2000/svg" xmlns:xlink="http://www.w3.org/1999/xlink">
    <!-- Generator: Sketch 51.2 (57519) - http://www.bohemiancoding.com/sketch -->
    <title>Fill 1</title>
    <desc>Created with Sketch.</desc>
    <defs>
        <circle id="path-1" cx="28.5" cy="28.5" r="28.5"></circle>
    </defs>
    <g id="Page-1" stroke="none" stroke-width="1" fill="none" fill-rule="evenodd">
        <g id="Artboard-3" transform="translate(-254.000000, -32.000000)">
            <g id="Fill-1" transform="translate(254.000000, 32.000000)">
                <mask id="mask-2" fill="white">
                    <use xlink:href="#path-1"></use>
                </mask>
                <use id="Mask" fill="#FFFFFF" xlink:href="#path-1"></use>
                <path d="M48.3901454,61.4959612 L42.0573506,61.4959612 L42.0573506,55.1631664 L40.4741519,55.1631664 L40.4741519,61.4959612 L16.7261712,61.4168013 L16.7261712,55.0840065 L15.1429725,55.0840065 L15.1429725,61.4168013 L8.81017771,61.4168013 L8.81017771,51.5218094 C8.81017771,47.8804523 11.1058158,44.5557351 14.588853,43.368336 L20.8424879,41.1518578 L28.5210016,61.3376414 L36.3578352,41.1518578 L42.6114701,43.368336 C46.0945073,44.634895 48.3901454,47.8804523 48.3901454,51.6009693 L48.3901454,61.4959612 Z M27.5710824,42.4975767 L29.7875606,42.4975767 L28.9959612,43.9224556 L30.5,51.8384491 L28.6001616,56.825525 L26.7003231,51.8384491 L28.2835218,43.9224556 L27.5710824,42.4975767 Z M25.1171244,38.1437803 C26.2253635,38.8562197 27.3336026,39.2520194 28.6001616,39.2520194 C29.8667205,39.2520194 31.0541195,38.8562197 32.0831987,38.1437803 C32.6373183,39.1728595 33.7455574,40.0436187 34.8537964,40.5185784 L31.5290792,49.0678514 L30.5791599,44.0807754 L32.2415186,40.8352181 L24.9588045,40.8352181 L26.6211632,44.1599354 L25.592084,49.0678514 L22.3465267,40.5185784 C23.4547658,40.1227787 24.5630048,39.1728595 25.1171244,38.1437803 Z M19.9717286,24.2907916 C19.9717286,22.7075929 20.3675283,21.2827141 21.1591276,20.0161551 C22.3465267,19.3828756 23.7714055,19.3828756 24.8004847,20.095315 C28.1252019,22.1534733 31.2915994,20.8077544 32.4789984,20.095315 C33.5872375,19.4620355 35.0121163,19.4620355 36.1995153,20.095315 C36.9119548,21.361874 37.3869144,22.8659128 37.3077544,24.4491115 C37.3077544,26.7447496 36.4369952,29.7528271 35.0912763,32.365105 L30.1833603,32.365105 L30.1833603,31.5735057 L28.6001616,31.5735057 L28.6001616,34.7399031 L30.1833603,34.7399031 L30.1833603,33.9483037 L34.141357,33.9483037 C32.6373183,36.2439418 30.6583199,37.9063005 28.6001616,37.9063005 C24.0088853,37.6688207 19.9717286,29.3570275 19.9717286,24.2907916 Z M34.6163166,17.9579968 C33.5872375,17.8788368 32.5581583,18.1163166 31.687399,18.6704362 C29.7084006,19.8578352 27.5710824,19.8578352 25.592084,18.6704362 C24.7213247,18.1954766 23.6922456,17.9579968 22.7423263,17.9579968 C24.325525,16.5331179 26.3836834,15.5831987 28.6793215,15.5831987 C30.9749596,15.5831987 33.1122779,16.5331179 34.6163166,17.9579968 Z M38.9701131,29.0403877 L38.9701131,32.2067851 L36.9119548,32.2067851 C37.3869144,31.177706 37.861874,30.0694669 38.1785137,29.0403877 L38.9701131,29.0403877 Z M43.1655897,41.8642973 L35.4870759,39.0936995 C34.5371567,38.6978998 33.5872375,37.8271405 33.4289176,37.1147011 C34.3788368,36.1647819 35.3287561,35.0565428 36.0411955,33.7899838 L40.4741519,33.7899838 L40.4741519,27.457189 L38.4951535,27.457189 C38.7326333,26.3489499 38.8909532,25.2407108 38.8909532,24.2907916 C38.8909532,18.5912763 34.2996769,14 28.6001616,14 C22.9006462,14 18.30937,18.5912763 18.30937,24.2116317 C18.30937,27.9321486 20.4466882,33.8691438 23.7714055,37.1147011 C23.6130856,37.8271405 22.5840065,38.6187399 21.7132472,39.0936995 L14.0347334,41.7851373 C9.99757674,43.2891761 7.30613893,47.1680129 7.30613893,51.4426494 L7.30613893,62.9208401 L49.9733441,63 L49.9733441,51.5218094 C49.9733441,47.2471729 47.2027464,43.368336 43.1655897,41.8642973 Z" fill="#001B4F" mask="url(#mask-2)"></path>
            </g>
        </g>
    </g>
</svg>